<svg width="276" height="226" viewBox="0 0 276 226" fill="none" xmlns="http://www.w3.org/2000/svg">
<g filter="url(#filter0_d_879_5659)">
<path d="M7.62398 190.212C5.20188 187.973 4 184.811 4 180.726C4 178.715 4.23854 176.814 4.70644 175.005L15.4867 124.712L30.3955 122.702L25.5604 145.284C27.4412 144.151 28.9826 143.392 30.1936 143.027C31.4047 142.661 32.6157 142.479 33.8176 142.479C41.7445 142.479 45.708 148.2 45.708 159.642C45.708 164.257 44.818 169.192 43.0381 174.447C41.2582 179.702 38.304 184.198 34.1662 187.945C30.0376 191.692 24.6797 193.566 18.0923 193.566C13.5325 193.575 10.0461 192.451 7.62398 190.212ZM29.5881 179.976C31.4047 177.399 32.8451 174.191 33.9185 170.344C34.992 166.496 35.5333 162.804 35.5333 159.249C35.5333 156.571 35.0654 154.295 34.1204 152.422C33.1754 150.548 31.8726 149.607 30.1936 149.607C29.1844 149.607 28.0559 149.762 26.8173 150.055C25.5696 150.356 24.7164 150.804 24.2484 151.407L18.707 176.905C18.5051 177.71 18.4042 178.477 18.4042 179.218C18.4042 182.297 20.1841 183.833 23.7438 183.833C25.8265 183.842 27.7807 182.553 29.5881 179.976Z" fill="url(#paint0_linear_879_5659)"/>
<path d="M52.0448 190.536C50.0631 188.525 49.0723 185.518 49.0723 181.506C49.0723 179.834 49.3383 177.659 49.8796 174.981L56.7331 142.757H71.2474L63.9902 176.882C63.7884 177.887 63.6875 178.828 63.6875 179.697C63.6875 182.438 64.6967 183.809 66.7059 183.809C68.5867 183.809 70.2015 183.023 71.541 181.451C72.8805 179.879 73.9631 177.723 74.7613 174.981L81.6147 142.757H96.129L88.8719 176.882C88.6058 177.887 88.4682 178.956 88.4682 180.09C88.4682 181.433 88.7893 182.384 89.4224 182.95C90.0554 183.517 91.1197 183.8 92.5968 183.8C94.4776 183.8 96.1107 182.996 97.4869 181.387C98.8631 179.779 99.9548 177.64 100.762 174.963H104.992C102.505 182.192 99.4319 187.09 95.7712 189.667C92.1105 192.245 88.4315 193.533 84.7341 193.533C81.8441 193.533 79.5413 192.729 77.8348 191.121C76.1191 189.512 75.1007 187.136 74.7613 183.992C72.4768 187.675 70.073 190.179 67.5592 191.523C65.0361 192.866 62.4672 193.533 59.8525 193.533C56.6322 193.552 54.0266 192.546 52.0448 190.536Z" fill="url(#paint1_linear_879_5659)"/>
<path d="M104.589 189.664C102.039 187.05 100.764 182.974 100.764 177.417C100.764 172.464 101.755 167.264 103.736 161.808C105.718 156.352 108.672 151.736 112.599 147.953C116.526 144.169 121.214 142.278 126.655 142.278C129.407 142.278 131.453 142.744 132.802 143.685C134.141 144.626 134.82 145.86 134.82 147.395V147.798L139.756 124.712L154.665 122.702L143.077 176.905C142.811 177.911 142.673 178.98 142.673 180.113C142.673 181.457 142.995 182.407 143.628 182.974C144.261 183.54 145.325 183.824 146.802 183.824C148.683 183.824 150.316 183.019 151.692 181.411C153.068 179.802 154.16 177.664 154.967 174.986H159.197C155.096 186.968 148.343 192.954 138.939 192.954C136.187 192.954 133.948 192.213 132.242 190.742C130.526 189.271 129.471 187.132 129.067 184.317C127.324 186.995 125.223 189.207 122.774 190.943C120.324 192.679 117.452 193.557 114.159 193.557C110.333 193.575 107.14 192.268 104.589 189.664ZM125.599 181.63C127.242 180.159 128.37 178.121 128.976 175.507V175.004L133.912 152.02C133.306 149.68 131.93 148.51 129.783 148.51C127.095 148.51 124.673 150.064 122.526 153.18C120.379 156.288 118.7 160.044 117.489 164.421C116.278 168.808 115.672 172.665 115.672 176.019C115.672 179.364 116.159 181.502 117.131 182.444C118.104 183.385 119.296 183.851 120.709 183.851C122.324 183.842 123.948 183.102 125.599 181.63Z" fill="url(#paint2_linear_879_5659)"/>
<path d="M166.048 215.487C163.902 213.814 162.828 211.402 162.828 208.258C162.828 204.447 164.369 201.385 167.461 199.073C170.553 196.761 174.48 194.842 179.251 193.306L180.462 187.987C177.04 191.67 173.003 193.507 168.37 193.507C164.544 193.507 161.351 192.2 158.8 189.596C156.25 186.982 154.975 182.906 154.975 177.349C154.975 172.396 155.965 167.196 157.947 161.74C159.929 156.284 162.883 151.669 166.81 147.885C170.737 144.102 175.425 142.21 180.865 142.21C183.618 142.21 185.664 142.676 187.013 143.617C188.352 144.558 189.031 145.792 189.031 147.328V147.931L190.141 142.712H204.655L194.682 189.285C197.903 188.216 200.49 186.607 202.444 184.469C204.389 182.33 206.041 179.15 207.38 174.937H211.61C209.793 180.895 207.344 185.255 204.252 188.033C201.16 190.811 197.664 192.703 193.774 193.708L192.26 200.937C190.912 207.426 188.6 211.895 185.306 214.335C182.012 216.775 178.287 218 174.122 218C170.893 218 168.204 217.159 166.048 215.487ZM175.122 207.856C176.196 206.311 177.04 204.109 177.645 201.23L178.251 198.314C171.663 200.727 168.379 203.569 168.379 206.85C168.379 207.719 168.682 208.486 169.287 209.163C169.893 209.83 170.727 210.168 171.81 210.168C172.939 210.168 174.049 209.4 175.122 207.856ZM179.654 181.663C181.269 180.256 182.379 178.346 182.976 175.942L188.113 152.153C188.113 151.349 187.774 150.535 187.104 149.695C186.434 148.854 185.389 148.443 183.985 148.443C181.297 148.443 178.875 149.996 176.728 153.113C174.581 156.22 172.902 159.976 171.691 164.354C170.48 168.74 169.874 172.597 169.874 175.951C169.874 179.296 170.36 181.435 171.333 182.376C172.306 183.317 173.498 183.783 174.911 183.783C176.462 183.774 178.04 183.071 179.654 181.663Z" fill="url(#paint3_linear_879_5659)"/>
<path d="M209.059 190.533C207.077 188.523 206.086 185.516 206.086 181.504C206.086 179.831 206.352 177.656 206.894 174.979L213.747 142.754H228.261L221.004 176.879C220.738 177.885 220.6 178.954 220.6 180.087C220.6 181.431 220.922 182.381 221.555 182.948C222.188 183.514 223.252 183.798 224.729 183.798C226.674 183.798 228.491 182.975 230.169 181.339C231.848 179.703 233.059 177.574 233.793 174.969H238.023C235.537 182.198 232.344 187.097 228.454 189.674C224.555 192.251 220.692 193.54 216.866 193.54C213.646 193.549 211.041 192.544 209.059 190.533ZM218.077 135.032C216.527 133.496 215.756 131.623 215.756 129.411C215.756 127.2 216.527 125.317 218.077 123.736C219.619 122.164 221.5 121.378 223.72 121.378C225.94 121.378 227.83 122.164 229.408 123.736C230.986 125.308 231.775 127.2 231.775 129.411C231.775 131.623 230.986 133.496 229.408 135.032C227.83 136.567 225.931 137.344 223.72 137.344C221.509 137.335 219.628 136.567 218.077 135.032Z" fill="url(#paint4_linear_879_5659)"/>
<path d="M237.842 189.751C235.09 187.174 233.714 183.144 233.714 177.66C233.714 173.045 234.622 167.955 236.43 162.407C238.246 156.851 241.2 152.053 245.301 148.004C249.403 143.956 254.605 141.936 260.917 141.936C268.302 141.936 272 145.144 272 151.568C272 155.315 270.926 158.761 268.779 161.905C266.633 165.048 263.77 167.58 260.21 169.481C256.651 171.391 252.852 172.479 248.825 172.744C248.687 174.215 248.623 175.22 248.623 175.75C248.623 181.307 250.705 184.085 254.871 184.085C256.751 184.085 258.77 183.582 260.917 182.577C263.064 181.572 265.009 180.302 266.761 178.766C264.944 188.673 259.137 193.617 249.329 193.617C244.421 193.617 240.595 192.329 237.842 189.751ZM256.733 165.414C258.981 163.806 260.797 161.749 262.174 159.245C263.55 156.732 264.238 154.109 264.238 151.367C264.238 148.626 263.394 147.255 261.715 147.255C259.366 147.255 257.027 149.384 254.715 153.625C252.393 157.874 250.669 162.645 249.522 167.927C252.082 167.854 254.476 167.013 256.733 165.414Z" fill="url(#paint5_linear_879_5659)"/>
<path d="M122.368 47.7464C122.368 47.1433 122.359 46.5401 122.368 45.9186C122.377 45.0321 122.744 44.0817 123.34 43.3048C123.221 42.6103 123.093 42.1716 123.276 41.4953C122.854 40.0879 121.285 39.8229 119.551 39.6675C118.744 39.5944 117.771 39.1648 117.248 38.5708C111.349 31.9084 111.413 21.7001 117.469 14.5716C123.716 7.20554 132.12 5.59706 141.13 6.65719C151.451 7.87269 156.305 11.3455 163.709 15.5769C170.397 19.4062 171.186 19.1777 171.269 19.2051C170.874 18.6294 164.901 10.9343 155.773 5.50567C156.14 5.67932 156.516 5.85295 156.883 6.03574C160.176 7.63507 163.388 8.30222 166.736 6.36474C167.094 6.15454 167.406 5.87124 167.938 5.46912C166.241 5.49653 164.828 5.52395 163.415 5.55137C163.388 5.42342 163.36 5.29547 163.333 5.16753C166.397 4.93905 169.425 4.63746 171.526 1.56673C170.975 1.70382 170.7 1.74952 170.443 1.84091C166.562 3.20263 162.599 2.94673 158.635 2.44408C153.461 1.78607 148.314 0.81733 143.121 0.42435C142.68 0.387794 142.258 0.406075 141.827 0.406075C134.01 -0.772864 126.377 0.579714 119.386 4.92991C111.734 9.69136 107.312 16.5822 106.349 25.5568C105.606 32.4568 108.083 38.1321 113.156 42.8022C113.652 43.2591 114.184 44.1822 114.056 44.7305C113.514 46.9422 113.927 49.9764 116.423 49.5377C117.083 48.5415 117.469 48.2856 119.037 48.2856C119.478 48.2856 119.872 48.3587 120.239 48.4593C120.771 48.0389 121.496 47.783 122.368 47.7464Z" fill="url(#paint6_linear_879_5659)"/>
<path d="M185.237 33.7477C185.062 33.2907 184.337 31.5178 183.723 30.7227C186.319 42.375 186.769 56.3851 180.686 66.9408C175.97 75.1111 168.172 81.0698 159.685 84.9721C157.199 86.1145 154.713 87.1198 152.318 88.0154C142.088 91.8447 130.849 93.3618 120.216 90.2363C118.326 103.671 136.629 107.646 146.345 106.915C148.235 106.769 150.098 106.476 151.951 106.111C152.859 105.937 162.181 103.753 162.777 103.908C159.263 110.379 153.887 113.212 152.171 114.921C164.227 111.457 175.154 103.579 182.007 93.0785C187.879 84.0948 192.209 73.4935 192.127 62.6271C192.053 52.7752 188.778 42.8502 185.237 33.7477Z" fill="url(#paint7_linear_879_5659)"/>
<path d="M136.461 31.7863C136.095 31.1191 134.517 30.7627 133.535 30.8632C131.48 31.0734 130.094 32.5265 130.067 35.3139C130.195 35.4785 130.434 37.1235 130.819 37.1326C132.883 37.1875 135.021 36.8676 136.232 35.0306C136.773 34.2081 136.911 32.5996 136.461 31.7863Z" fill="url(#paint8_linear_879_5659)"/>
<path d="M124.417 45.9384C123.234 44.5401 124.16 42.557 123.628 41.4511C123.335 40.848 123.05 40.5647 122.463 40.2356C122.271 40.126 117.417 45.9933 116.757 46.7335C116.087 47.4738 115.408 48.2141 114.711 48.9269C114.619 49.1097 118.142 52.8658 122.839 51.9154C125.197 51.4401 127.463 50.6725 129.904 47.9033C129.289 48.2506 125.702 47.4738 124.417 45.9384Z" fill="url(#paint9_linear_879_5659)"/>
</g>
<defs>
<filter id="filter0_d_879_5659" x="0" y="0" width="276" height="226" filterUnits="userSpaceOnUse" color-interpolation-filters="sRGB">
<feFlood flood-opacity="0" result="BackgroundImageFix"/>
<feColorMatrix in="SourceAlpha" type="matrix" values="0 0 0 0 0 0 0 0 0 0 0 0 0 0 0 0 0 0 127 0" result="hardAlpha"/>
<feOffset dy="4"/>
<feGaussianBlur stdDeviation="2"/>
<feComposite in2="hardAlpha" operator="out"/>
<feColorMatrix type="matrix" values="0 0 0 0 0.184314 0 0 0 0 0.352941 0 0 0 0 0.568627 0 0 0 0.2 0"/>
<feBlend mode="normal" in2="BackgroundImageFix" result="effect1_dropShadow_879_5659"/>
<feBlend mode="normal" in="SourceGraphic" in2="effect1_dropShadow_879_5659" result="shape"/>
</filter>
<linearGradient id="paint0_linear_879_5659" x1="305.172" y1="165.055" x2="10.7022" y2="157.756" gradientUnits="userSpaceOnUse">
<stop offset="0.00352744" stop-color="#42216D"/>
<stop offset="1" stop-color="#00ABD8"/>
</linearGradient>
<linearGradient id="paint1_linear_879_5659" x1="300.355" y1="173.627" x2="5.8854" y2="166.328" gradientUnits="userSpaceOnUse">
<stop offset="0.00352744" stop-color="#42216D"/>
<stop offset="1" stop-color="#00ABD8"/>
</linearGradient>
<linearGradient id="paint2_linear_879_5659" x1="296.911" y1="162.141" x2="2.44182" y2="154.842" gradientUnits="userSpaceOnUse">
<stop offset="0.00352744" stop-color="#42216D"/>
<stop offset="1" stop-color="#00ABD8"/>
</linearGradient>
<linearGradient id="paint3_linear_879_5659" x1="292.663" y1="182.9" x2="-1.80679" y2="175.601" gradientUnits="userSpaceOnUse">
<stop offset="0.00352744" stop-color="#42216D"/>
<stop offset="1" stop-color="#00ABD8"/>
</linearGradient>
<linearGradient id="paint4_linear_879_5659" x1="287.743" y1="159.123" x2="-6.72094" y2="151.824" gradientUnits="userSpaceOnUse">
<stop offset="0.00352744" stop-color="#42216D"/>
<stop offset="1" stop-color="#00ABD8"/>
</linearGradient>
<linearGradient id="paint5_linear_879_5659" x1="283.796" y1="168.476" x2="-10.6734" y2="161.176" gradientUnits="userSpaceOnUse">
<stop offset="0.00352744" stop-color="#42216D"/>
<stop offset="1" stop-color="#00ABD8"/>
</linearGradient>
<linearGradient id="paint6_linear_879_5659" x1="146.233" y1="45.1616" x2="134.773" y2="-0.505439" gradientUnits="userSpaceOnUse">
<stop offset="0.2837" stop-color="#42216D"/>
<stop offset="0.4836" stop-color="#2C5091"/>
<stop offset="0.7195" stop-color="#1481B7"/>
<stop offset="0.8991" stop-color="#05A0CF"/>
<stop offset="1" stop-color="#00ABD8"/>
</linearGradient>
<linearGradient id="paint7_linear_879_5659" x1="166.614" y1="116.541" x2="147.407" y2="39.9964" gradientUnits="userSpaceOnUse">
<stop offset="0.2837" stop-color="#42216D"/>
<stop offset="0.4836" stop-color="#2C5091"/>
<stop offset="0.7195" stop-color="#1481B7"/>
<stop offset="0.8991" stop-color="#05A0CF"/>
<stop offset="1" stop-color="#00ABD8"/>
</linearGradient>
<linearGradient id="paint8_linear_879_5659" x1="1680.5" y1="538.183" x2="1696.84" y2="543.547" gradientUnits="userSpaceOnUse">
<stop offset="0.2055" stop-color="#42216D"/>
<stop offset="0.4272" stop-color="#2C5091"/>
<stop offset="0.6888" stop-color="#1481B7"/>
<stop offset="0.8881" stop-color="#05A0CF"/>
<stop offset="1" stop-color="#00ABD8"/>
</linearGradient>
<linearGradient id="paint9_linear_879_5659" x1="3658.26" y1="1198.33" x2="3695.6" y2="1210.59" gradientUnits="userSpaceOnUse">
<stop offset="0.2055" stop-color="#42216D"/>
<stop offset="0.4272" stop-color="#2C5091"/>
<stop offset="0.6888" stop-color="#1481B7"/>
<stop offset="0.8881" stop-color="#05A0CF"/>
<stop offset="1" stop-color="#00ABD8"/>
</linearGradient>
</defs>
</svg>
