<svg width="79" height="40" viewBox="0 0 79 40" fill="none" xmlns="http://www.w3.org/2000/svg">
<path d="M9.33473 0C9.33473 0 4.57986 5.54043 6.43906 13.2693C7.04812 15.81 8.38375 18.1051 10.072 20.1014C16.9212 28.1719 28.2367 34.4489 48.2606 37.7795C48.2606 37.7795 32.3825 40.7473 13.7584 30.7873C11.429 29.5383 9.25993 28.0224 7.32593 26.2076C3.40449 22.514 -0.175018 17.6354 0.0066285 11.1983C0.060054 8.97785 0.604994 6.76808 1.79104 4.88924C4.38752 0.768615 8.40513 0 9.33473 0Z" fill="#EC8922"/>
<path d="M16.132 17.7742H70.2857" stroke="#EE8621" stroke-width="0.666667"/>
<path d="M24.0588 16.6213C19.4321 16.6213 17.1241 13.5682 17.1241 8.8711C17.1241 4.02455 19.5604 1.09955 24.3259 1.09955C26.1637 1.09955 27.649 1.54791 28.7816 2.47665C29.8394 3.42674 30.4378 4.72912 30.5981 6.3731H28.7389C28.0764 6.3731 27.5849 6.06352 27.2964 5.46571C26.7835 4.37684 25.7898 3.82173 24.3259 3.82173C21.4623 3.82173 20.2015 5.83934 20.2015 8.8711C20.2015 11.8175 21.4196 13.8991 24.2404 13.8991C26.1637 13.8991 27.275 12.8423 27.6062 11.1769H30.5981C30.3096 14.6571 27.8734 16.6213 24.0588 16.6213Z" fill="white"/>
<path fill-rule="evenodd" clip-rule="evenodd" d="M35.1179 7.73953H32.1688C32.5214 5.57247 34.0494 4.51562 36.7527 4.51562C39.9903 4.51562 41.6358 5.57247 41.6999 7.73953V11.7321C41.6999 14.9666 39.7445 16.4078 36.5817 16.6213C33.7609 16.8455 31.8162 15.5431 31.8162 12.949C31.8803 10.1308 33.9211 9.38351 36.8916 9.09528C38.1524 8.93515 38.7935 8.56152 38.7935 7.92101C38.7294 7.25915 38.1097 6.92822 36.8916 6.92822C35.8444 6.92822 35.2675 7.1951 35.1179 7.73953ZM38.8363 11.5933V10.5151C38.1524 10.8033 37.351 11.0488 36.4962 11.2196C35.3209 11.4438 34.7225 11.9989 34.7225 12.8636C34.7866 13.7924 35.2675 14.2301 36.2077 14.2301C37.8426 14.2301 38.8363 13.2586 38.8363 11.5933Z" fill="white"/>
<path d="M53.8382 4.6862L49.7031 16.4076H46.5723L42.4479 4.6862H45.7068L48.0789 12.9061L50.1198 5.73237C50.3442 5.03848 50.825 4.6862 51.5623 4.6862H53.8382Z" fill="white"/>
<path d="M56.4774 1.34509C57.4498 1.34509 57.9199 1.83615 57.8986 2.78624V3.65093H54.9495V1.34509H56.4774ZM56.4774 4.68643C57.4284 4.68643 57.8986 5.15614 57.8986 6.10623V16.4078H54.9495V4.68643H56.4774Z" fill="white"/>
<path d="M68.0495 16.4078C67.0771 16.3331 66.5856 15.874 66.5856 14.9453V8.91381C66.5215 7.69683 65.8483 7.09902 64.5448 7.09902C63.2412 7.09902 62.568 7.69683 62.5466 8.91381V16.4078H59.5548V9.51161C59.5548 6.17027 61.2431 4.51562 64.5875 4.51562C67.9319 4.51562 69.5774 6.17027 69.5561 9.51161V16.4078H68.0495Z" fill="white"/>
<path d="M16.7395 21.1476C16.7395 20.7953 16.9105 20.6138 17.2524 20.6138H17.7653V25.6312H16.7395V21.1476Z" fill="white"/>
<path d="M21.6119 20.6138H22.1675L24.2084 24.0512V20.6138H25.2234V25.6312H24.1549L22.1034 22.1831V25.6312H21.099V21.1476C21.099 20.8594 21.3234 20.6138 21.6119 20.6138Z" fill="white"/>
<path d="M31.0041 23.4107H29.583V25.6312H28.5679V21.1476C28.5679 20.8594 28.8029 20.6138 29.0914 20.6138H32.2115V21.4785H29.583V22.5567H31.549V22.8876C31.549 23.1759 31.2926 23.4107 31.0041 23.4107Z" fill="white"/>
<path fill-rule="evenodd" clip-rule="evenodd" d="M35.4066 23.1227C35.4066 21.5855 36.3255 20.5286 37.8108 20.5286C39.3067 20.5286 40.2256 21.5962 40.2256 23.1227C40.2256 24.66 39.3387 25.7061 37.8108 25.7061C36.2828 25.7061 35.4066 24.6493 35.4066 23.1227ZM36.4431 23.1227C36.4431 24.1048 36.8705 24.8414 37.8108 24.8414C38.7511 24.8414 39.1891 24.1262 39.1891 23.1227C39.1891 22.1299 38.7511 21.4147 37.8108 21.4147C36.8705 21.4147 36.4431 22.1406 36.4431 23.1227Z" fill="white"/>
<path d="M43.8263 20.6138H47.299V21.4999H45.8244V25.6312H44.788V21.4999H43.3027V21.1476C43.3027 20.8594 43.5378 20.6138 43.8263 20.6138Z" fill="white"/>
<path d="M50.6113 21.1476C50.6113 20.806 50.7823 20.6138 51.1242 20.6138H54.2443V21.4785H51.6264V22.5567H53.5818V22.8876C53.5925 23.2399 53.4108 23.4107 53.0475 23.4107H51.6264V24.7024H54.2443V25.6312H50.6113V21.1476Z" fill="white"/>
<path d="M59.822 25.7061C58.2834 25.7061 57.514 24.6813 57.514 23.1227C57.514 21.5001 58.3261 20.5286 59.9182 20.5286C60.5272 20.5286 61.0188 20.6781 61.3927 20.9877C61.756 21.2973 61.9484 21.7349 62.0018 22.2794H61.382C61.1577 22.2794 60.9974 22.1833 60.9012 21.9805C60.7303 21.6175 60.399 21.436 59.9182 21.436C58.9565 21.436 58.5398 22.1086 58.5398 23.1227C58.5398 24.1048 58.9458 24.7987 59.8861 24.7987C60.5272 24.7987 60.9012 24.4358 61.0081 23.8807H62.0018C61.9056 25.0443 61.0935 25.7061 59.822 25.7061Z" fill="white"/>
<path d="M65.8269 20.6138H66.3505V22.482H68.4127V20.6138H69.4492V25.6312H68.4127V23.4107H66.3505V25.6312H65.3033V21.1476C65.3033 20.8594 65.5384 20.6138 65.8269 20.6138Z" fill="white"/>
<path d="M33.8035 34.4492C33.8035 37.5129 31.3139 40.0003 28.2366 40.0003C25.1699 40.0003 22.6803 37.5129 22.6803 34.4492C22.6803 31.3747 25.1699 28.8874 28.2366 28.8874C31.3139 28.8874 33.8035 31.3747 33.8035 34.4492Z" fill="white"/>
</svg>
