<svg xmlns="http://www.w3.org/2000/svg" width="79" height="40" viewBox="0 0 79 40" fill="none">
  <path d="M16.0093 17.7744H78.3206" stroke="#EE8621" stroke-width="1.3"/>
  <path d="M24.0696 16.6214C19.4408 16.6214 17.1318 13.5682 17.1318 8.87116C17.1318 4.02461 19.5691 1.09961 24.3368 1.09961C26.1755 1.09961 27.6614 1.54797 28.7945 2.47671C29.8528 3.4268 30.4514 4.72918 30.6118 6.37316H28.7517C28.089 6.37316 27.5972 6.06358 27.3086 5.46577C26.7955 4.3769 25.8013 3.82179 24.3368 3.82179C21.4719 3.82179 20.2105 5.8394 20.2105 8.87116C20.2105 11.8175 21.4292 13.8992 24.2513 13.8992C26.1755 13.8992 27.2872 12.8423 27.6186 11.177H30.6118C30.3231 14.6571 27.8858 16.6214 24.0696 16.6214Z" fill="#092C4C"/>
  <path fill-rule="evenodd" clip-rule="evenodd" d="M35.1337 7.73954H32.1833C32.5361 5.57247 34.0648 4.51562 36.7693 4.51562C40.0083 4.51562 41.6546 5.57247 41.7187 7.73954V11.7321C41.7187 14.9667 39.7625 16.4078 36.5983 16.6213C33.7761 16.8455 31.8306 15.5431 31.8306 12.949C31.8947 10.1308 33.9365 9.38352 36.9083 9.09529C38.1697 8.93516 38.8111 8.56153 38.8111 7.92101C38.7469 7.25915 38.1269 6.92822 36.9083 6.92822C35.8606 6.92822 35.2834 7.1951 35.1337 7.73954ZM38.8538 11.5933V10.5151C38.1697 10.8033 37.3679 11.0488 36.5127 11.2197C35.3368 11.4438 34.7382 11.9989 34.7382 12.8636C34.8024 13.7924 35.2834 14.2301 36.2241 14.2301C37.8597 14.2301 38.8538 13.2586 38.8538 11.5933Z" fill="#092C4C"/>
  <path d="M53.8622 4.68652L49.7252 16.4079H46.5931L42.4668 4.68652H45.7272L48.1004 12.9064L50.1421 5.73269C50.3666 5.0388 50.8477 4.68652 51.5853 4.68652H53.8622Z" fill="#092C4C"/>
  <path d="M56.5028 1.34521C57.4756 1.34521 57.9459 1.83627 57.9245 2.78637V3.65106H54.9741V1.34521H56.5028ZM56.5028 4.68655C57.4542 4.68655 57.9245 5.15626 57.9245 6.10635V16.4079H54.9741V4.68655H56.5028Z" fill="#092C4C"/>
  <path d="M68.08 16.4078C67.1072 16.3331 66.6155 15.874 66.6155 14.9453V8.91381C66.5513 7.69684 65.8779 7.09903 64.5737 7.09903C63.2696 7.09903 62.5961 7.69684 62.5747 8.91381V16.4078H59.5815V9.51162C59.5815 6.17028 61.2705 4.51562 64.6165 4.51562C67.9624 4.51562 69.6086 6.17028 69.5873 9.51162V16.4078H68.08Z" fill="#092C4C"/>
  <path d="M16.7471 21.1475C16.7471 20.7952 16.9181 20.6138 17.2602 20.6138H17.7733V25.6311H16.7471V21.1475Z" fill="#092C4C"/>
  <path d="M21.6215 20.6138H22.1774L24.2191 24.0512V20.6138H25.2347V25.6311H24.1657L22.1132 22.183V25.6311H21.1084V21.1475C21.1084 20.8593 21.3329 20.6138 21.6215 20.6138Z" fill="#092C4C"/>
  <path d="M31.0179 23.4107H29.5961V25.6311H28.5806V21.1475C28.5806 20.8593 28.8157 20.6138 29.1044 20.6138H32.2258V21.4785H29.5961V22.5567H31.563V22.8876C31.563 23.1758 31.3065 23.4107 31.0179 23.4107Z" fill="#092C4C"/>
  <path fill-rule="evenodd" clip-rule="evenodd" d="M35.4224 23.1224C35.4224 21.5852 36.3417 20.5283 37.8276 20.5283C39.3242 20.5283 40.2435 21.5958 40.2435 23.1224C40.2435 24.6596 39.3562 25.7058 37.8276 25.7058C36.2989 25.7058 35.4224 24.6489 35.4224 23.1224ZM36.4593 23.1224C36.4593 24.1045 36.8869 24.8411 37.8276 24.8411C38.7683 24.8411 39.2066 24.1259 39.2066 23.1224C39.2066 22.1296 38.7683 21.4144 37.8276 21.4144C36.8869 21.4144 36.4593 22.1403 36.4593 23.1224Z" fill="#092C4C"/>
  <path d="M43.8456 20.6138H47.3198V21.4998H45.8446V25.6311H44.8077V21.4998H43.3218V21.1475C43.3218 20.8593 43.557 20.6138 43.8456 20.6138Z" fill="#092C4C"/>
  <path d="M50.6338 21.1475C50.6338 20.8059 50.8048 20.6138 51.1469 20.6138H54.2683V21.4785H51.6493V22.5567H53.6056V22.8876C53.6163 23.2399 53.4345 23.4107 53.0711 23.4107H51.6493V24.7024H54.2683V25.6311H50.6338V21.1475Z" fill="#092C4C"/>
  <path d="M59.8486 25.7058C58.3092 25.7058 57.5396 24.681 57.5396 23.1224C57.5396 21.4998 58.352 20.5283 59.9448 20.5283C60.5541 20.5283 61.0458 20.6778 61.42 20.9874C61.7834 21.2969 61.9758 21.7346 62.0293 22.2791H61.4093C61.1848 22.2791 61.0245 22.183 60.9282 21.9801C60.7572 21.6172 60.4258 21.4357 59.9448 21.4357C58.9827 21.4357 58.5658 22.1082 58.5658 23.1224C58.5658 24.1045 58.972 24.7984 59.9127 24.7984C60.5541 24.7984 60.9282 24.4354 61.0351 23.8803H62.0293C61.9331 25.0439 61.1207 25.7058 59.8486 25.7058Z" fill="#092C4C"/>
  <path d="M65.8563 20.6138H66.3801V22.4819H68.4433V20.6138H69.4802V25.6311H68.4433V23.4107H66.3801V25.6311H65.3325V21.1475C65.3325 20.8593 65.5677 20.6138 65.8563 20.6138Z" fill="#092C4C"/>
  <path d="M9.33889 0C9.33889 0 4.5819 5.54043 6.44193 13.2693C7.05126 15.81 8.38749 18.1051 10.0765 20.1014C16.9287 28.1719 28.2493 34.4489 48.2821 37.7795C48.2821 37.7795 32.3969 40.7473 13.7645 30.7873C11.4341 29.5383 9.26406 28.0224 7.32919 26.2076C3.40601 22.514 -0.175096 17.6354 0.00663145 11.1983C0.0600808 8.97785 0.605264 6.76808 1.79184 4.88924C4.38948 0.768615 8.40887 0 9.33889 0Z" fill="#EC8922"/>
  <path d="M33.8186 34.449C33.8186 37.5128 31.3278 40.0001 28.2492 40.0001C25.1812 40.0001 22.6904 37.5128 22.6904 34.449C22.6904 31.3745 25.1812 28.8872 28.2492 28.8872C31.3278 28.8872 33.8186 31.3745 33.8186 34.449Z" fill="#092C4C"/>
</svg>